<svg width="100" height="40" viewBox="0 0 39 7" fill="none" xmlns="http://www.w3.org/2000/svg">
<path fill-rule="evenodd" clip-rule="evenodd" d="M35.7676 0.147786C37.1819 0.147786 37.9597 0.792509 37.9597 2.01032C38.0304 2.94159 37.394 3.72958 36.5455 3.87285L38.4547 6.52338H36.9697L35.3434 3.94449H35.202V6.52338H33.9999V0.147786H35.7676ZM35.202 3.08489H35.5556C36.3334 3.08489 36.6869 2.72671 36.6869 2.08198C36.6869 1.5089 36.3334 1.15072 35.5556 1.15072H35.202V3.08489ZM29.8281 6.52338H33.2223V5.44885H31.0302V3.72958H33.1515V2.65504H31.0302V1.22233H33.2223V0.147786H29.8281V6.52338ZM26.2923 4.44594L24.666 0.147786H23.3932L26.0095 6.66666H26.6459L29.2622 0.147786H27.9894L26.2923 4.44594ZM11.938 3.37142C11.938 5.16231 13.3522 6.66667 15.12 6.66667C15.6857 6.66667 16.1807 6.5234 16.6756 6.30849V4.87577C16.3221 5.30559 15.8271 5.59213 15.2614 5.59213C14.13 5.59213 13.2108 4.7325 13.2108 3.58632V3.44305C13.1401 2.29688 14.0593 1.29397 15.1907 1.22234C15.7564 1.22234 16.3221 1.50888 16.6756 1.9387V0.505979C16.2514 0.219435 15.6857 0.147799 15.1907 0.147799C13.3522 0.00452743 11.938 1.50888 11.938 3.37142ZM9.74585 2.58342C9.03874 2.29688 8.82661 2.1536 8.82661 1.79542C8.89732 1.36561 9.25087 1.00743 9.67514 1.07906C10.0287 1.07906 10.3823 1.29397 10.6651 1.58052L11.3015 0.720885C10.8065 0.291069 10.1701 0.00452501 9.53372 0.00452501C8.54376 -0.0671109 7.69523 0.720884 7.62452 1.72379V1.79542C7.62452 2.65506 7.97807 3.15651 9.10945 3.51469C9.39229 3.58632 9.67514 3.72959 9.95798 3.87287C10.1701 4.01614 10.3115 4.23105 10.3115 4.51759C10.3115 5.01904 9.88727 5.44886 9.46301 5.44886H9.39229C8.82661 5.44886 8.33163 5.09068 8.1195 4.58923L7.34167 5.37722C7.76594 6.16522 8.61447 6.59503 9.46301 6.59503C10.5944 6.66667 11.5136 5.80704 11.5843 4.66086V4.44595C11.5136 3.58632 11.1601 3.15651 9.74585 2.58342ZM5.64477 6.52338H6.84686V0.147786H5.64477V6.52338ZM0.0585938 0.147801H1.82637H2.17993C3.87699 0.219437 5.2205 1.65216 5.14979 3.37142C5.14979 4.30269 4.72553 5.16232 4.01841 5.80704C3.38201 6.30849 2.60419 6.59504 1.82637 6.5234H0.0585938V0.147801ZM1.6143 5.44884C2.17999 5.52047 2.81639 5.30557 3.24065 4.94739C3.66492 4.51757 3.87706 3.94448 3.87706 3.29976C3.87706 2.72667 3.66492 2.15359 3.24065 1.72377C2.81639 1.36559 2.17999 1.15068 1.6143 1.22232H1.26074V5.44884H1.6143Z" fill="white"/>
<path fill-rule="evenodd" clip-rule="evenodd" d="M20.282 0C18.5142 0 17.0293 1.43272 17.0293 3.29525C17.0293 5.08615 18.4435 6.59051 20.282 6.66214C22.1205 6.73378 23.5347 5.22942 23.6054 3.36689C23.5347 1.50435 22.1205 0 20.282 0V0Z" fill="#FD6020"/>
</svg>
