<svg width="60" height="40" viewBox="0 0 31 19" fill="none" xmlns="http://www.w3.org/2000/svg">
<path fill-rule="evenodd" clip-rule="evenodd" d="M15.2417 16.4391C13.6398 17.7699 11.5618 18.5732 9.29106 18.5732C4.22447 18.5732 0.117188 14.5736 0.117188 9.63988C0.117188 4.70613 4.22447 0.706543 9.29106 0.706543C11.5618 0.706543 13.6398 1.50989 15.2417 2.84064C16.8437 1.50989 18.9217 0.706543 21.1924 0.706543C26.259 0.706543 30.3663 4.70613 30.3663 9.63988C30.3663 14.5736 26.259 18.5732 21.1924 18.5732C18.9217 18.5732 16.8437 17.7699 15.2417 16.4391Z" fill="#ED0006"/>
<path fill-rule="evenodd" clip-rule="evenodd" d="M15.2412 16.4393C17.2138 14.8007 18.4646 12.3625 18.4646 9.63988C18.4646 6.91721 17.2138 4.47903 15.2412 2.8405C16.8431 1.50983 18.9211 0.706543 21.1917 0.706543C26.2583 0.706543 30.3656 4.70613 30.3656 9.63988C30.3656 14.5736 26.2583 18.5732 21.1917 18.5732C18.9211 18.5732 16.8431 17.7699 15.2412 16.4393Z" fill="#F9A000"/>
<path fill-rule="evenodd" clip-rule="evenodd" d="M15.2417 16.4392C17.2142 14.8007 18.4649 12.3626 18.4649 9.64003C18.4649 6.91746 17.2142 4.47936 15.2417 2.84082C13.2693 4.47936 12.0186 6.91746 12.0186 9.64003C12.0186 12.3626 13.2693 14.8007 15.2417 16.4392Z" fill="#FF5E00"/>
</svg>
