<svg width="70" height="40" viewBox="0 0 33 12" fill="none" xmlns="http://www.w3.org/2000/svg">
<path fill-rule="evenodd" clip-rule="evenodd" d="M8.54448 11.1441H5.75777L3.66808 3.0563C3.56889 2.68426 3.35829 2.35536 3.04851 2.20034C2.27541 1.81078 1.4235 1.50075 0.494141 1.34438V1.033H4.98331C5.60288 1.033 6.06756 1.50075 6.145 2.04398L7.22925 7.878L10.0146 1.033H12.7239L8.54448 11.1441ZM14.2729 11.1441H11.6411L13.8082 1.033H16.44L14.2729 11.1441ZM19.8448 3.83409C19.9222 3.28951 20.3869 2.97813 20.929 2.97813C21.7809 2.89995 22.7089 3.05631 23.4834 3.44453L23.9481 1.26755C23.1736 0.956169 22.3217 0.799805 21.5486 0.799805C18.9942 0.799805 17.1355 2.20035 17.1355 4.14412C17.1355 5.62285 18.4521 6.39928 19.3815 6.86703C20.3869 7.33342 20.7741 7.64481 20.6967 8.1112C20.6967 8.8108 19.9222 9.12218 19.1491 9.12218C18.2198 9.12218 17.2904 8.88898 16.4399 8.49942L15.9752 10.6777C16.9045 11.066 17.91 11.2223 18.8393 11.2223C21.7035 11.2992 23.4834 9.89996 23.4834 7.79982C23.4834 5.1551 19.8448 5.00009 19.8448 3.83409ZM32.694 11.1441L30.6043 1.033H28.3598C27.8951 1.033 27.4304 1.34438 27.2755 1.81078L23.4059 11.1441H26.1152L26.6559 9.66676H29.9848L30.2946 11.1441H32.694ZM28.7472 3.75591L29.5203 7.56663H27.3532L28.7472 3.75591Z" fill="white"/>
</svg>
