<svg width="129" height="129" viewBox="0 0 129 129" fill="none" xmlns="http://www.w3.org/2000/svg">
<path d="M101.464 71.994C97.7635 63.994 88.6135 60.834 88.6135 60.834C88.6135 60.834 100.144 54.914 97.6135 43.294C95.9835 35.714 89.1135 28.094 76.3235 27.904V16.904H64.9335V27.904H56.6435V16.904H45.2635V27.904H30.9735V38.284H37.5735C37.9281 38.284 38.2792 38.3538 38.6068 38.4895C38.9343 38.6252 39.232 38.8241 39.4827 39.0748C39.7334 39.3255 39.9323 39.6232 40.068 39.9508C40.2037 40.2783 40.2735 40.6294 40.2735 40.984V85.784C40.2735 86.5796 39.9574 87.3427 39.3948 87.9053C38.8322 88.4679 38.0692 88.784 37.2735 88.784H33.3435L30.9735 99.954H45.2635V111.704H56.6435V99.954H64.9335V111.704H76.3135V99.954H78.5135C100.544 99.954 106.464 83.004 101.464 71.994ZM68.2335 38.284C74.0235 38.284 79.3935 42.014 79.5435 47.734C79.6935 53.454 74.9535 58.394 68.6635 58.474C62.8735 58.544 56.6635 58.474 56.6635 58.474V38.284C56.6635 38.284 62.1635 38.284 68.2335 38.284ZM71.6335 88.754C65.6335 88.864 56.6335 88.754 56.6335 88.754V67.754C56.6335 67.754 64.9435 67.874 71.1435 67.754C78.6035 67.634 84.0935 71.114 84.1435 77.684C84.1935 84.254 79.7235 88.624 71.6335 88.774V88.754Z" fill="white"/>
</svg>
