<svg width="129" height="129" viewBox="0 0 607 560" fill="none" xmlns="http://www.w3.org/2000/svg">
<g clip-path="url(#clip0_401_2)">
<path d="M166.141 277.98C164.848 300.444 182.141 319.677 204.606 320.97C205.414 320.97 206.222 320.97 207.03 320.97C229.657 320.97 247.919 302.707 247.758 280.081C247.758 257.455 229.495 239.192 206.869 239.354C185.212 239.354 167.273 256.323 166.141 277.98Z" fill="#0033AD"/>
<path d="M13.899 267.475C6.62626 266.99 0.323231 272.646 -1.54134e-06 279.919C-0.323234 287.192 5.17172 293.495 12.4444 293.818C19.7172 294.303 25.8586 288.646 26.3434 281.374C26.8283 274.101 21.1717 267.96 13.899 267.475Z" fill="#0033AD"/>
<path d="M163.556 41.0505C170.02 37.8182 172.606 29.7374 169.374 23.2727C166.141 16.8081 158.061 14.2222 151.596 17.4545C145.131 20.6869 142.545 28.6061 145.778 35.0707C149.01 41.697 156.929 44.4444 163.556 41.0505C163.394 41.0505 163.556 41.0505 163.556 41.0505Z" fill="#0033AD"/>
<path d="M204.929 113.293C214.949 108.283 218.99 96 213.98 85.9798C208.97 75.9596 196.687 71.9192 186.667 76.9293C176.646 81.9394 172.606 94.2222 177.616 104.242C182.626 114.263 194.909 118.303 204.929 113.293Z" fill="#0033AD"/>
<path d="M65.6162 162.909C73.3737 167.919 83.7172 165.818 88.8889 158.061C93.899 150.303 91.798 139.96 84.0404 134.788C76.2828 129.778 65.9394 131.879 60.7677 139.636C55.596 147.394 57.8586 157.899 65.6162 162.909Z" fill="#0033AD"/>
<path d="M90.3434 260.202C79.0303 259.556 69.495 268.121 68.8485 279.434C68.202 290.747 76.7677 300.283 88.0808 300.929C99.3939 301.576 108.929 293.01 109.576 281.697C110.222 270.545 101.657 260.848 90.3434 260.202Z" fill="#0033AD"/>
<path d="M67.8788 397.091C59.6364 401.293 56.2424 411.313 60.4445 419.717C64.6465 427.96 74.6667 431.354 83.0707 427.151C91.3131 422.949 94.7071 412.929 90.5051 404.525C86.303 396.283 76.1212 392.889 67.8788 397.091Z" fill="#0033AD"/>
<path d="M147.071 218.02C158.222 225.293 173.091 222.222 180.202 211.071C187.475 199.919 184.404 185.05 173.253 177.939C162.101 170.667 147.232 173.737 140.121 184.889C132.848 195.879 135.919 210.747 147.071 218.02Z" fill="#0033AD"/>
<path d="M398.384 111.677C407.758 117.818 420.525 115.232 426.667 105.859C432.808 96.4849 430.222 83.7172 420.849 77.5758C411.475 71.4343 398.707 74.0202 392.566 83.3939C386.263 92.9293 388.849 105.535 398.384 111.677Z" fill="#0033AD"/>
<path d="M440.081 39.7576C446.222 43.798 454.303 42.0202 458.343 35.8788C462.384 29.7374 460.606 21.6566 454.465 17.6162C448.323 13.5758 440.242 15.3535 436.202 21.3333C432.323 27.4748 434.101 35.7172 440.081 39.7576Z" fill="#0033AD"/>
<path d="M401.455 239.03C378.99 237.737 359.596 255.03 358.465 277.495C357.172 299.96 374.465 319.354 396.929 320.485C397.737 320.485 398.545 320.485 399.192 320.485C421.657 320.485 439.919 302.222 439.919 279.596C440.081 258.101 423.111 240.162 401.455 239.03Z" fill="#0033AD"/>
<path d="M218.343 215.111C225.293 228.848 239.354 237.576 254.869 237.576C277.333 237.576 295.596 219.313 295.596 196.687C295.596 190.384 294.141 184.081 291.232 178.263C281.051 158.061 256.485 149.98 236.444 160.162C216.242 170.505 208.162 195.071 218.343 215.111Z" fill="#0033AD"/>
<path d="M538.182 162.909C546.424 158.707 549.657 148.525 545.455 140.283C541.253 132.04 531.071 128.808 522.828 133.01C514.586 137.212 511.354 147.232 515.394 155.475C519.758 163.717 529.778 167.111 538.182 162.909Z" fill="#0033AD"/>
<path d="M434.747 175.838C422.949 181.818 418.101 196.202 424.081 208C430.061 219.798 444.444 224.646 456.242 218.667C468.04 212.687 472.889 198.303 466.909 186.505C460.929 174.707 446.545 170.02 434.747 175.838Z" fill="#0033AD"/>
<path d="M301.414 33.6162C310.626 34.101 318.545 26.9899 319.192 17.7778C319.838 8.56566 312.566 0.646467 303.354 2.59839e-06C294.141 -0.484846 286.222 6.46465 285.576 15.6768C285.091 25.0505 292.202 32.9697 301.414 33.6162Z" fill="#0033AD"/>
<path d="M301.253 139.152C314.505 139.96 325.818 129.778 326.465 116.525C327.273 103.273 317.091 91.9596 303.838 91.3131C290.586 90.5051 279.273 100.687 278.626 113.939C277.98 127.192 288 138.505 301.253 139.152Z" fill="#0033AD"/>
<path d="M171.313 384.162C183.111 378.182 187.96 363.798 181.98 352C176 340.202 161.616 335.354 149.818 341.333C138.02 347.313 133.172 361.697 139.151 373.495C145.131 385.293 159.515 390.141 171.313 384.162Z" fill="#0033AD"/>
<path d="M316.768 174.222C304.485 193.131 309.657 218.343 328.566 230.626C347.475 242.909 372.687 237.737 384.97 218.828C397.253 199.919 392.081 174.707 373.172 162.424C366.545 158.061 358.788 155.798 350.869 155.798C337.131 155.798 324.364 162.747 316.768 174.222Z" fill="#0033AD"/>
<path d="M387.717 344.889C377.535 324.687 352.97 316.606 332.929 326.788C312.727 336.97 304.646 361.535 314.828 381.576C325.01 401.778 349.576 409.859 369.616 399.677C389.657 389.657 397.899 365.414 387.879 345.212C387.879 345.051 387.879 345.05 387.717 344.889Z" fill="#0033AD"/>
<path d="M458.99 341.98C447.838 334.707 432.97 337.778 425.859 348.929C418.586 360.081 421.657 374.95 432.808 382.061C443.96 389.333 458.828 386.263 465.939 375.111C473.212 364.121 470.141 349.253 458.99 341.98Z" fill="#0033AD"/>
<path d="M537.212 280.727C537.859 269.414 529.293 259.879 517.98 259.232C506.667 258.586 497.131 267.152 496.485 278.465C495.838 289.778 504.404 299.313 515.717 299.96C526.869 300.606 536.566 291.879 537.212 280.727Z" fill="#0033AD"/>
<path d="M593.616 266.182C586.343 265.697 580.04 271.354 579.717 278.626C579.394 285.899 584.889 292.202 592.162 292.525C599.434 293.01 605.576 287.354 606.061 280.081C606.384 272.808 600.889 266.667 593.616 266.182Z" fill="#0033AD"/>
<path d="M540.444 397.091C532.687 392.081 522.343 394.182 517.172 401.939C512.162 409.697 514.263 420.04 522.02 425.212C529.778 430.222 540.121 428.121 545.293 420.364C550.465 412.606 548.202 402.101 540.444 397.091Z" fill="#0033AD"/>
<path d="M165.818 520.242C159.677 516.202 151.596 517.98 147.556 523.96C143.515 530.101 145.293 538.182 151.273 542.222C157.414 546.263 165.495 544.485 169.535 538.505C173.737 532.525 171.96 524.283 165.818 520.242Z" fill="#0033AD"/>
<path d="M442.505 518.95C436.04 522.182 433.455 530.263 436.687 536.727C439.919 543.192 448 545.778 454.465 542.546C460.929 539.313 463.515 531.394 460.283 524.929C457.051 518.303 449.131 515.556 442.505 518.95C442.667 518.95 442.505 518.95 442.505 518.95Z" fill="#0033AD"/>
<path d="M289.293 385.778C301.576 366.869 296.404 341.657 277.495 329.212C258.586 316.929 233.374 322.101 220.929 341.01C208.485 359.919 213.818 385.131 232.727 397.576C239.354 401.939 247.111 404.202 255.03 404.202C268.929 404.364 281.697 397.414 289.293 385.778Z" fill="#0033AD"/>
<path d="M207.677 448.323C198.303 442.182 185.535 444.768 179.394 454.141C173.253 463.515 175.838 476.283 185.212 482.424C194.586 488.566 207.354 485.98 213.495 476.606C219.798 467.232 217.212 454.465 207.677 448.323Z" fill="#0033AD"/>
<path d="M302.869 526.384C293.657 525.899 285.737 533.01 285.091 542.222C284.444 551.434 291.717 559.354 300.929 560C310.141 560.485 318.061 553.535 318.707 544.323C319.192 534.949 312.081 527.03 302.869 526.384Z" fill="#0033AD"/>
<path d="M303.03 420.848C289.778 420.04 278.465 430.222 277.818 443.475C277.01 456.727 287.192 468.04 300.444 468.687C313.697 469.333 325.01 459.313 325.657 446.061C326.465 432.97 316.283 421.495 303.03 420.848Z" fill="#0033AD"/>
<path d="M401.131 446.707C391.111 451.879 387.071 464.162 392.242 474.182C397.414 484.202 409.697 488.242 419.717 483.071C429.737 478.061 433.778 465.778 428.768 455.758C423.596 445.737 411.313 441.535 401.131 446.707Z" fill="#0033AD"/>
</g>
<defs>
<clipPath id="clip0_401_2">
<rect width="606.061" height="560" fill="white"/>
</clipPath>
</defs>
</svg>
