<svg width="129" height="129" viewBox="0 0 129 129" fill="none" xmlns="http://www.w3.org/2000/svg">
<path d="M26.9923 108.934C30.9136 108.934 34.0923 105.755 34.0923 101.834C34.0923 97.9127 30.9136 94.7339 26.9923 94.7339C23.0711 94.7339 19.8923 97.9127 19.8923 101.834C19.8923 105.755 23.0711 108.934 26.9923 108.934Z" fill="white"/>
<path d="M102.092 33.8339C106.014 33.8339 109.192 30.6551 109.192 26.7339C109.192 22.8127 106.014 19.6339 102.092 19.6339C98.1711 19.6339 94.9923 22.8127 94.9923 26.7339C94.9923 30.6551 98.1711 33.8339 102.092 33.8339Z" fill="white"/>
<path d="M26.9923 33.8339C30.9136 33.8339 34.0923 30.6551 34.0923 26.7339C34.0923 22.8127 30.9136 19.6339 26.9923 19.6339C23.0711 19.6339 19.8923 22.8127 19.8923 26.7339C19.8923 30.6551 23.0711 33.8339 26.9923 33.8339Z" fill="white"/>
<path d="M102.092 108.934C106.014 108.934 109.192 105.755 109.192 101.834C109.192 97.9127 106.014 94.7339 102.092 94.7339C98.1711 94.7339 94.9923 97.9127 94.9923 101.834C94.9923 105.755 98.1711 108.934 102.092 108.934Z" fill="white"/>
<path d="M91.3823 80.284L102.022 90.9139C107.564 83.1325 110.542 73.8171 110.542 64.264C110.542 54.7108 107.564 45.3954 102.022 37.614L91.3823 48.284C94.2675 53.1223 95.7907 58.6507 95.7907 64.284C95.7907 69.9172 94.2675 75.4456 91.3823 80.284Z" fill="white"/>
<path d="M80.5423 91.1239C75.704 94.009 70.1756 95.5322 64.5423 95.5322C58.9091 95.5322 53.3807 94.009 48.5423 91.1239L37.8923 101.764C45.6737 107.306 54.9892 110.284 64.5423 110.284C74.0954 110.284 83.4109 107.306 91.1923 101.764L80.5423 91.1239Z" fill="white"/>
<path d="M48.5423 37.4439C53.3807 34.5588 58.9091 33.0356 64.5423 33.0356C70.1756 33.0356 75.704 34.5588 80.5423 37.4439L91.1923 26.8039C83.4109 21.2621 74.0954 18.284 64.5423 18.284C54.9892 18.284 45.6737 21.2621 37.8923 26.8039L48.5423 37.4439Z" fill="white"/>
<path d="M37.7024 48.2839L27.0624 37.6339C21.5206 45.4153 18.5425 54.7308 18.5425 64.2839C18.5425 73.837 21.5206 83.1525 27.0624 90.9339L37.7024 80.2839C34.8173 75.4456 33.2941 69.9172 33.2941 64.2839C33.2941 58.6507 34.8173 53.1222 37.7024 48.2839Z" fill="white"/>
<path d="M35.3024 37.0439C36.4069 37.0439 37.3024 36.1485 37.3024 35.0439C37.3024 33.9394 36.4069 33.0439 35.3024 33.0439C34.1978 33.0439 33.3024 33.9394 33.3024 35.0439C33.3024 36.1485 34.1978 37.0439 35.3024 37.0439Z" fill="white"/>
<path d="M93.7823 95.5239C94.8869 95.5239 95.7823 94.6285 95.7823 93.5239C95.7823 92.4194 94.8869 91.5239 93.7823 91.5239C92.6778 91.5239 91.7823 92.4194 91.7823 93.5239C91.7823 94.6285 92.6778 95.5239 93.7823 95.5239Z" fill="white"/>
<path d="M64.5424 66.2839C65.6469 66.2839 66.5424 65.3885 66.5424 64.2839C66.5424 63.1794 65.6469 62.2839 64.5424 62.2839C63.4378 62.2839 62.5424 63.1794 62.5424 64.2839C62.5424 65.3885 63.4378 66.2839 64.5424 66.2839Z" fill="white"/>
<path d="M69.4124 71.1539C70.5169 71.1539 71.4124 70.2585 71.4124 69.1539C71.4124 68.0494 70.5169 67.1539 69.4124 67.1539C68.3078 67.1539 67.4124 68.0494 67.4124 69.1539C67.4124 70.2585 68.3078 71.1539 69.4124 71.1539Z" fill="white"/>
<path d="M74.2924 76.0339C75.3969 76.0339 76.2924 75.1385 76.2924 74.0339C76.2924 72.9294 75.3969 72.0339 74.2924 72.0339C73.1878 72.0339 72.2924 72.9294 72.2924 74.0339C72.2924 75.1385 73.1878 76.0339 74.2924 76.0339Z" fill="white"/>
<path d="M79.1624 80.9039C80.2669 80.9039 81.1624 80.0085 81.1624 78.9039C81.1624 77.7994 80.2669 76.9039 79.1624 76.9039C78.0578 76.9039 77.1624 77.7994 77.1624 78.9039C77.1624 80.0085 78.0578 80.9039 79.1624 80.9039Z" fill="white"/>
<path d="M84.0424 85.7839C85.1469 85.7839 86.0424 84.8885 86.0424 83.7839C86.0424 82.6794 85.1469 81.7839 84.0424 81.7839C82.9378 81.7839 82.0424 82.6794 82.0424 83.7839C82.0424 84.8885 82.9378 85.7839 84.0424 85.7839Z" fill="white"/>
<path d="M88.9124 90.6539C90.0169 90.6539 90.9124 89.7585 90.9124 88.6539C90.9124 87.5494 90.0169 86.6539 88.9124 86.6539C87.8078 86.6539 86.9124 87.5494 86.9124 88.6539C86.9124 89.7585 87.8078 90.6539 88.9124 90.6539Z" fill="white"/>
<path d="M40.1724 41.9139C41.2769 41.9139 42.1724 41.0185 42.1724 39.9139C42.1724 38.8094 41.2769 37.9139 40.1724 37.9139C39.0678 37.9139 38.1724 38.8094 38.1724 39.9139C38.1724 41.0185 39.0678 41.9139 40.1724 41.9139Z" fill="white"/>
<path d="M45.0424 46.7839C46.1469 46.7839 47.0424 45.8885 47.0424 44.7839C47.0424 43.6794 46.1469 42.7839 45.0424 42.7839C43.9378 42.7839 43.0424 43.6794 43.0424 44.7839C43.0424 45.8885 43.9378 46.7839 45.0424 46.7839Z" fill="white"/>
<path d="M49.9224 51.6639C51.0269 51.6639 51.9224 50.7685 51.9224 49.6639C51.9224 48.5594 51.0269 47.6639 49.9224 47.6639C48.8178 47.6639 47.9224 48.5594 47.9224 49.6639C47.9224 50.7685 48.8178 51.6639 49.9224 51.6639Z" fill="white"/>
<path d="M54.7924 56.5339C55.8969 56.5339 56.7924 55.6385 56.7924 54.5339C56.7924 53.4294 55.8969 52.5339 54.7924 52.5339C53.6878 52.5339 52.7924 53.4294 52.7924 54.5339C52.7924 55.6385 53.6878 56.5339 54.7924 56.5339Z" fill="white"/>
<path d="M59.6724 61.4139C60.7769 61.4139 61.6724 60.5185 61.6724 59.4139C61.6724 58.3094 60.7769 57.4139 59.6724 57.4139C58.5678 57.4139 57.6724 58.3094 57.6724 59.4139C57.6724 60.5185 58.5678 61.4139 59.6724 61.4139Z" fill="white"/>
<path d="M93.7823 37.0439C94.8869 37.0439 95.7823 36.1485 95.7823 35.0439C95.7823 33.9394 94.8869 33.0439 93.7823 33.0439C92.6778 33.0439 91.7823 33.9394 91.7823 35.0439C91.7823 36.1485 92.6778 37.0439 93.7823 37.0439Z" fill="white"/>
<path d="M35.3024 95.5239C36.4069 95.5239 37.3024 94.6285 37.3024 93.5239C37.3024 92.4194 36.4069 91.5239 35.3024 91.5239C34.1978 91.5239 33.3024 92.4194 33.3024 93.5239C33.3024 94.6285 34.1978 95.5239 35.3024 95.5239Z" fill="white"/>
<path d="M59.6724 71.1539C60.7769 71.1539 61.6724 70.2585 61.6724 69.1539C61.6724 68.0494 60.7769 67.1539 59.6724 67.1539C58.5678 67.1539 57.6724 68.0494 57.6724 69.1539C57.6724 70.2585 58.5678 71.1539 59.6724 71.1539Z" fill="white"/>
<path d="M54.7924 76.0339C55.8969 76.0339 56.7924 75.1385 56.7924 74.0339C56.7924 72.9294 55.8969 72.0339 54.7924 72.0339C53.6878 72.0339 52.7924 72.9294 52.7924 74.0339C52.7924 75.1385 53.6878 76.0339 54.7924 76.0339Z" fill="white"/>
<path d="M49.9224 80.9039C51.0269 80.9039 51.9224 80.0085 51.9224 78.9039C51.9224 77.7994 51.0269 76.9039 49.9224 76.9039C48.8178 76.9039 47.9224 77.7994 47.9224 78.9039C47.9224 80.0085 48.8178 80.9039 49.9224 80.9039Z" fill="white"/>
<path d="M45.0424 85.7839C46.1469 85.7839 47.0424 84.8885 47.0424 83.7839C47.0424 82.6794 46.1469 81.7839 45.0424 81.7839C43.9378 81.7839 43.0424 82.6794 43.0424 83.7839C43.0424 84.8885 43.9378 85.7839 45.0424 85.7839Z" fill="white"/>
<path d="M40.1724 90.6539C41.2769 90.6539 42.1724 89.7585 42.1724 88.6539C42.1724 87.5494 41.2769 86.6539 40.1724 86.6539C39.0678 86.6539 38.1724 87.5494 38.1724 88.6539C38.1724 89.7585 39.0678 90.6539 40.1724 90.6539Z" fill="white"/>
<path d="M88.9124 41.9139C90.0169 41.9139 90.9124 41.0185 90.9124 39.9139C90.9124 38.8094 90.0169 37.9139 88.9124 37.9139C87.8078 37.9139 86.9124 38.8094 86.9124 39.9139C86.9124 41.0185 87.8078 41.9139 88.9124 41.9139Z" fill="white"/>
<path d="M84.0424 46.7839C85.1469 46.7839 86.0424 45.8885 86.0424 44.7839C86.0424 43.6794 85.1469 42.7839 84.0424 42.7839C82.9378 42.7839 82.0424 43.6794 82.0424 44.7839C82.0424 45.8885 82.9378 46.7839 84.0424 46.7839Z" fill="white"/>
<path d="M79.1624 51.6639C80.2669 51.6639 81.1624 50.7685 81.1624 49.6639C81.1624 48.5594 80.2669 47.6639 79.1624 47.6639C78.0578 47.6639 77.1624 48.5594 77.1624 49.6639C77.1624 50.7685 78.0578 51.6639 79.1624 51.6639Z" fill="white"/>
<path d="M74.2924 56.5339C75.3969 56.5339 76.2924 55.6385 76.2924 54.5339C76.2924 53.4294 75.3969 52.5339 74.2924 52.5339C73.1878 52.5339 72.2924 53.4294 72.2924 54.5339C72.2924 55.6385 73.1878 56.5339 74.2924 56.5339Z" fill="white"/>
<path d="M69.4124 61.4139C70.5169 61.4139 71.4124 60.5185 71.4124 59.4139C71.4124 58.3094 70.5169 57.4139 69.4124 57.4139C68.3078 57.4139 67.4124 58.3094 67.4124 59.4139C67.4124 60.5185 68.3078 61.4139 69.4124 61.4139Z" fill="white"/>
</svg>
