<svg width="129" height="129" viewBox="0 0 715 560" fill="none" xmlns="http://www.w3.org/2000/svg">
<g clip-path="url(#clip0_402_2)">
<path d="M116.06 427.411C120.372 423.099 126.301 420.584 132.589 420.584H702.83C713.25 420.584 718.46 433.16 711.094 440.526L598.447 553.173C594.135 557.485 588.207 560 581.918 560H11.6779C1.25762 560 -3.95252 547.424 3.41354 540.058L116.06 427.411Z" fill="url(#paint0_linear_402_2)"/>
<path d="M116.06 6.82708C120.552 2.51524 126.481 0 132.589 0H702.83C713.25 0 718.46 12.5762 711.094 19.9423L598.447 132.589C594.135 136.901 588.207 139.416 581.918 139.416H11.6779C1.25762 139.416 -3.95252 126.84 3.41354 119.474L116.06 6.82708Z" fill="url(#paint1_linear_402_2)"/>
<path d="M598.447 215.772C594.135 211.46 588.207 208.944 581.918 208.944H11.6779C1.25762 208.944 -3.95252 221.521 3.41354 228.887L116.06 341.534C120.372 345.845 126.301 348.361 132.589 348.361H702.83C713.25 348.361 718.46 335.784 711.094 328.418L598.447 215.772Z" fill="url(#paint2_linear_402_2)"/>
</g>
<defs>
<linearGradient id="paint0_linear_402_2" x1="648.355" y1="-67.2922" x2="253.703" y2="688.625" gradientUnits="userSpaceOnUse">
<stop stop-color="#00FFA3"/>
<stop offset="1" stop-color="#DC1FFF"/>
</linearGradient>
<linearGradient id="paint1_linear_402_2" x1="475.792" y1="-157.385" x2="81.1398" y2="598.533" gradientUnits="userSpaceOnUse">
<stop stop-color="#00FFA3"/>
<stop offset="1" stop-color="#DC1FFF"/>
</linearGradient>
<linearGradient id="paint2_linear_402_2" x1="561.524" y1="-112.625" x2="166.872" y2="643.292" gradientUnits="userSpaceOnUse">
<stop stop-color="#00FFA3"/>
<stop offset="1" stop-color="#DC1FFF"/>
</linearGradient>
<clipPath id="clip0_402_2">
<rect width="714.508" height="560" fill="white"/>
</clipPath>
</defs>
</svg>
