<svg width="129" height="129" viewBox="0 0 402 370" fill="none" xmlns="http://www.w3.org/2000/svg">
<path fill-rule="evenodd" clip-rule="evenodd" d="M241.57 198.62C239.298 198.809 227.539 199.567 201.36 199.567C180.504 199.567 165.705 198.999 160.394 198.62C79.7956 195.023 19.6758 180.982 19.6758 164.29C19.6758 147.598 79.7956 133.378 160.394 129.781V184.589C165.653 184.968 180.693 185.915 201.55 185.915C226.582 185.915 239.098 184.779 241.381 184.589V129.781C321.789 133.378 381.909 147.419 381.909 164.101C381.909 180.782 321.958 195.023 241.57 198.62ZM241.57 124.28V75.1515H353.848V0.243622H48.1265V75.1515H160.394V124.28C69.1726 128.487 0.522827 146.462 0.522827 168.276C0.522827 190.09 69.1726 207.918 160.394 212.272V369.503H241.57V212.272C332.602 208.065 401.073 190.08 401.073 168.466C401.073 146.851 332.602 128.445 241.57 124.291V124.28Z" fill="white"/>
</svg>
