<svg width="129" height="129" viewBox="0 0 677 560" fill="none" xmlns="http://www.w3.org/2000/svg">
<g clip-path="url(#clip0_403_7)">
<path d="M577.17 0H674.906L471.509 201.389C397.851 274.281 278.428 274.281 204.717 201.389L1.24151 0H99.0566L253.585 152.983C276.1 175.173 306.442 187.612 338.054 187.612C369.666 187.612 400.008 175.173 422.523 152.983L577.17 0Z" fill="white"/>
<path d="M97.8019 560H0L204.717 357.37C278.375 284.477 397.798 284.477 471.509 357.37L676.226 560H578.491L422.642 405.775C400.127 383.585 369.785 371.146 338.173 371.146C306.561 371.146 276.218 383.585 253.704 405.775L97.8019 560Z" fill="white"/>
</g>
<defs>
<clipPath id="clip0_403_7">
<rect width="676.226" height="560" fill="white"/>
</clipPath>
</defs>
</svg>
