<svg width="337" height="69" viewBox="0 0 337 69" fill="none" xmlns="http://www.w3.org/2000/svg">
<path fill-rule="evenodd" clip-rule="evenodd" d="M34.2466 35.2139V0H11.5739C5.20996 0 0 5.19299 0 11.557V54.1361L34.2466 35.2139Z" fill="#FACD07"/>
<path fill-rule="evenodd" clip-rule="evenodd" d="M34.2466 0V35.2139L0 54.1361V56.9193C0 63.2663 5.20996 68.4762 11.5739 68.4762H56.9193C63.2832 68.4762 68.4762 63.2663 68.4762 56.9193V11.557C68.4762 5.20996 63.2832 0 56.9193 0H34.2466Z" fill="#005061"/>
<path fill-rule="evenodd" clip-rule="evenodd" d="M34.2468 36.843L54.3908 48.1794L46.3807 53.8984C45.4473 54.5773 45.2267 55.867 45.9055 56.8004C46.5674 57.7338 47.8741 57.9544 48.7905 57.2925L59.3971 49.7067C59.8893 49.3503 60.2117 48.7903 60.2626 48.1963L61.4166 35.129C61.5184 33.992 60.6699 32.9737 59.5329 32.8719C58.3958 32.7701 57.3776 33.6186 57.2758 34.7557L56.4103 44.5477L36.3341 33.2453V12.066L45.2267 16.1729C46.2789 16.6481 47.5008 16.1899 47.9929 15.1547C48.4681 14.1025 48.0099 12.8806 46.9747 12.3885L35.1292 6.94092C34.5183 6.68636 33.9752 6.68636 33.3643 6.94092L21.5188 12.3885C20.4836 12.8806 20.0254 14.1025 20.5006 15.1547C20.9758 16.1899 22.2146 16.6481 23.2498 16.1729L32.1594 12.066V33.2453L12.0663 44.5477L11.2008 34.7557C11.1159 33.6186 10.0977 32.7701 8.96064 32.8719C7.80664 32.9737 6.97509 33.992 7.05994 35.129L8.23091 48.1963C8.28182 48.7903 8.58729 49.3503 9.07943 49.7067L19.686 57.2925C20.6194 57.9544 21.9261 57.7338 22.588 56.8004C23.2498 55.867 23.0462 54.5773 22.1128 53.8984L14.1027 48.1794L34.2468 36.843Z" fill="white"/>
<path d="M103.356 45.56C103.036 45.8267 102.436 46.1867 101.556 46.64C100.703 47.0933 99.6495 47.4933 98.3962 47.84C97.1429 48.1867 95.7562 48.3467 94.2362 48.32C91.9162 48.2667 89.8362 47.8533 87.9962 47.08C86.1829 46.28 84.6362 45.2 83.3562 43.84C82.1029 42.48 81.1429 40.92 80.4762 39.16C79.8095 37.4 79.4762 35.52 79.4762 33.52C79.4762 31.28 79.8095 29.2267 80.4762 27.36C81.1695 25.4933 82.1429 23.88 83.3962 22.52C84.6762 21.16 86.1962 20.1067 87.9562 19.36C89.7162 18.6133 91.6629 18.24 93.7962 18.24C95.7695 18.24 97.5162 18.5067 99.0362 19.04C100.556 19.5733 101.796 20.1467 102.756 20.76L100.476 26.24C99.8095 25.7333 98.9162 25.2133 97.7962 24.68C96.7029 24.12 95.4362 23.84 93.9962 23.84C92.5029 23.84 91.1029 24.2533 89.7962 25.08C88.5162 25.9067 87.4762 27.0267 86.6762 28.44C85.9029 29.8267 85.5162 31.4133 85.5162 33.2C85.5162 35.0933 85.8762 36.76 86.5962 38.2C87.3162 39.6133 88.3429 40.72 89.6762 41.52C91.0095 42.32 92.5695 42.72 94.3562 42.72C95.9295 42.72 97.2762 42.4667 98.3962 41.96C99.5162 41.4533 100.37 40.92 100.956 40.36L103.356 45.56ZM105.567 33.32C105.567 31.2933 105.953 29.3733 106.727 27.56C107.5 25.7467 108.567 24.1467 109.927 22.76C111.313 21.3467 112.913 20.24 114.727 19.44C116.54 18.64 118.473 18.24 120.527 18.24C122.607 18.24 124.553 18.64 126.367 19.44C128.18 20.24 129.78 21.3467 131.167 22.76C132.58 24.1467 133.673 25.7467 134.447 27.56C135.247 29.3733 135.647 31.2933 135.647 33.32C135.647 35.4 135.247 37.3467 134.447 39.16C133.673 40.9733 132.58 42.5733 131.167 43.96C129.78 45.32 128.18 46.3867 126.367 47.16C124.553 47.9333 122.62 48.32 120.567 48.32C118.487 48.32 116.54 47.9333 114.727 47.16C112.913 46.3867 111.313 45.32 109.927 43.96C108.567 42.5733 107.5 40.9733 106.727 39.16C105.953 37.3467 105.567 35.4 105.567 33.32ZM111.567 33.32C111.567 35.0533 111.967 36.64 112.767 38.08C113.593 39.4933 114.7 40.6267 116.087 41.48C117.473 42.3067 119.033 42.72 120.767 42.72C122.447 42.72 123.953 42.3067 125.287 41.48C126.647 40.6267 127.713 39.4933 128.487 38.08C129.26 36.64 129.647 35.0533 129.647 33.32C129.647 31.5333 129.247 29.9333 128.447 28.52C127.647 27.08 126.567 25.9467 125.207 25.12C123.847 24.2667 122.313 23.84 120.607 23.84C118.9 23.84 117.367 24.2667 116.007 25.12C114.647 25.9467 113.567 27.08 112.767 28.52C111.967 29.9333 111.567 31.5333 111.567 33.32ZM139.629 48V17.36H139.669L156.029 40.56L153.549 40L169.869 17.36H169.949V48H164.149V30.44L164.509 33.44L154.549 47.6H154.469L144.229 33.44L145.229 30.68V48H139.629ZM184.679 18.56C188.332 18.56 191.132 19.4667 193.079 21.28C195.026 23.0667 195.999 25.4667 195.999 28.48C195.999 29.68 195.812 30.8933 195.439 32.12C195.092 33.32 194.519 34.4133 193.719 35.4C192.946 36.3867 191.892 37.1867 190.559 37.8C189.252 38.3867 187.639 38.68 185.719 38.68H181.559V48H175.759V18.56H184.679ZM185.679 33.04C186.559 33.04 187.292 32.8933 187.879 32.6C188.466 32.28 188.919 31.8933 189.239 31.44C189.586 30.96 189.826 30.4667 189.959 29.96C190.119 29.4533 190.199 29.0133 190.199 28.64C190.199 28.3467 190.146 27.96 190.039 27.48C189.959 26.9733 189.772 26.4667 189.479 25.96C189.186 25.4533 188.732 25.0267 188.119 24.68C187.532 24.3333 186.732 24.16 185.719 24.16H181.559V33.04H185.679ZM193.061 48L206.341 17.4H206.661L219.941 48H213.221L204.741 26.48L208.941 23.6L198.781 48H193.061ZM202.141 37.36H210.981L213.021 42.24H200.341L202.141 37.36ZM242.52 45.56C242.2 45.8267 241.6 46.1867 240.72 46.64C239.867 47.0933 238.814 47.4933 237.56 47.84C236.307 48.1867 234.92 48.3467 233.4 48.32C231.08 48.2667 229 47.8533 227.16 47.08C225.347 46.28 223.8 45.2 222.52 43.84C221.267 42.48 220.307 40.92 219.64 39.16C218.974 37.4 218.64 35.52 218.64 33.52C218.64 31.28 218.974 29.2267 219.64 27.36C220.334 25.4933 221.307 23.88 222.56 22.52C223.84 21.16 225.36 20.1067 227.12 19.36C228.88 18.6133 230.827 18.24 232.96 18.24C234.934 18.24 236.68 18.5067 238.2 19.04C239.72 19.5733 240.96 20.1467 241.92 20.76L239.64 26.24C238.974 25.7333 238.08 25.2133 236.96 24.68C235.867 24.12 234.6 23.84 233.16 23.84C231.667 23.84 230.267 24.2533 228.96 25.08C227.68 25.9067 226.64 27.0267 225.84 28.44C225.067 29.8267 224.68 31.4133 224.68 33.2C224.68 35.0933 225.04 36.76 225.76 38.2C226.48 39.6133 227.507 40.72 228.84 41.52C230.174 42.32 231.734 42.72 233.52 42.72C235.094 42.72 236.44 42.4667 237.56 41.96C238.68 41.4533 239.534 40.92 240.12 40.36L242.52 45.56ZM244.531 18.56H264.371V24.16H257.211V48H251.411V24.16H244.531V18.56Z" fill="#005061"/>
<path d="M277.088 18.56C280.742 18.56 283.542 19.4667 285.488 21.28C287.435 23.0667 288.408 25.4667 288.408 28.48C288.408 29.68 288.222 30.8933 287.848 32.12C287.502 33.32 286.928 34.4133 286.128 35.4C285.355 36.3867 284.302 37.1867 282.968 37.8C281.662 38.3867 280.048 38.68 278.128 38.68H273.968V48H268.168V18.56H277.088ZM278.088 33.04C278.968 33.04 279.702 32.8933 280.288 32.6C280.875 32.28 281.328 31.8933 281.648 31.44C281.995 30.96 282.235 30.4667 282.368 29.96C282.528 29.4533 282.608 29.0133 282.608 28.64C282.608 28.3467 282.555 27.96 282.448 27.48C282.368 26.9733 282.182 26.4667 281.888 25.96C281.595 25.4533 281.142 25.0267 280.528 24.68C279.942 24.3333 279.142 24.16 278.128 24.16H273.968V33.04H278.088ZM285.47 48L298.75 17.4H299.07L312.35 48H305.63L297.15 26.48L301.35 23.6L291.19 48H285.47ZM294.55 37.36H303.39L305.43 42.24H292.75L294.55 37.36ZM318.497 38.84L307.657 18.56H314.817L322.417 33.84L320.697 33.96L328.177 18.56H335.337L324.297 38.84V48H318.497V38.84Z" fill="#005061"/>
<path d="M277.088 18.56C280.742 18.56 283.542 19.4667 285.488 21.28C287.435 23.0667 288.408 25.4667 288.408 28.48C288.408 29.68 288.222 30.8933 287.848 32.12C287.502 33.32 286.928 34.4133 286.128 35.4C285.355 36.3867 284.302 37.1867 282.968 37.8C281.662 38.3867 280.048 38.68 278.128 38.68H273.968V48H268.168V18.56H277.088ZM278.088 33.04C278.968 33.04 279.702 32.8933 280.288 32.6C280.875 32.28 281.328 31.8933 281.648 31.44C281.995 30.96 282.235 30.4667 282.368 29.96C282.528 29.4533 282.608 29.0133 282.608 28.64C282.608 28.3467 282.555 27.96 282.448 27.48C282.368 26.9733 282.182 26.4667 281.888 25.96C281.595 25.4533 281.142 25.0267 280.528 24.68C279.942 24.3333 279.142 24.16 278.128 24.16H273.968V33.04H278.088ZM285.47 48L298.75 17.4H299.07L312.35 48H305.63L297.15 26.48L301.35 23.6L291.19 48H285.47ZM294.55 37.36H303.39L305.43 42.24H292.75L294.55 37.36ZM318.497 38.84L307.657 18.56H314.817L322.417 33.84L320.697 33.96L328.177 18.56H335.337L324.297 38.84V48H318.497V38.84Z" fill="#FACD07"/>
</svg>
